<svg width="12" height="12" viewBox="0 0 12 12" fill="none" xmlns="http://www.w3.org/2000/svg">
<rect x="2" y="5" width="8" height="6" rx="1" fill="white"/>
<mask id="path-2-outside-1_149_11546" maskUnits="userSpaceOnUse" x="3" y="1" width="6" height="4" fill="black">
<rect fill="white" x="3" y="1" width="6" height="4"/>
<path d="M4 4C4 2.89543 4.89543 2 6 2C7.10457 2 8 2.89543 8 4V5H4V4Z"/>
</mask>
<path d="M3 4C3 2.34315 4.34315 1 6 1C7.65685 1 9 2.34315 9 4H7C7 3.44772 6.55228 3 6 3C5.44772 3 5 3.44772 5 4H3ZM8 5H4H8ZM3 5V4C3 2.34315 4.34315 1 6 1V3C5.44772 3 5 3.44772 5 4V5H3ZM6 1C7.65685 1 9 2.34315 9 4V5H7V4C7 3.44772 6.55228 3 6 3V1Z" fill="white" mask="url(#path-2-outside-1_149_11546)"/>
<circle cx="6" cy="8" r="1" fill="#D2D3D9"/>
</svg>
