<svg width="113" height="32" viewBox="0 0 113 32" fill="none" xmlns="http://www.w3.org/2000/svg">
<g clip-path="url(#clip0_28_445)">
<path d="M19.9755 0.0853271H28.1677C34.6693 0.0853271 39.951 5.34613 39.951 11.8315C39.951 18.3125 34.6735 23.5776 28.1677 23.5776H19.9755V0.0853271Z" fill="#3EEE2A"/>
<path d="M19.9755 0.0853271H0V31.9445H19.9755V0.0853271Z" fill="#2E2F34"/>
<path d="M55.6338 7.66464V4.93663H44.9455V0.374876H61.0346V14.9905H55.6338V12.2264H44.9455V7.66464H55.6338ZM72.2848 22.6145V21.0066H46.5223V17.1179H78.1703V26.4988H52.4079V28.1067H78.5464V31.9955H46.5223V22.6145H72.2848ZM64.0341 15.4377V0H69.4348V5.75865L72.7333 4.59788V0H78.1703V15.4377H72.7333V9.64291L69.4348 10.8037V15.4377H64.0341Z" fill="#2E2F34"/>
<path d="M103.729 17.9805H81.2649V13.4188H84.0786V4.93211H81.2649V0.374876H103.729V4.93663H100.915V13.4233H103.729V17.985V17.9805ZM106.955 32V25.1212H84.3414V20.6001H112.841V32H106.955ZM89.9687 13.4188H95.0297V4.93211H89.9687V13.4188ZM112.845 0V18.9155H106.959V0H112.845Z" fill="#2E2F34"/>
</g>
<defs>
<clipPath id="clip0_28_445">
<rect width="113" height="32" fill="white"/>
</clipPath>
</defs>
</svg>
