<svg width="24" height="24" viewBox="0 0 24 24" fill="none" xmlns="http://www.w3.org/2000/svg">
<path fill-rule="evenodd" clip-rule="evenodd" d="M8.05042 12.0002C8.05042 9.81872 9.81888 8.05024 12.0004 8.05024C14.1819 8.05024 15.9504 9.81872 15.9504 12.0002C15.9504 14.1818 14.1819 15.9502 12.0004 15.9502C9.81888 15.9502 8.05042 14.1818 8.05042 12.0002ZM12.0004 9.95024C10.8682 9.95024 9.95041 10.8681 9.95041 12.0002C9.95041 13.1324 10.8682 14.0502 12.0004 14.0502C13.1326 14.0502 14.0504 13.1324 14.0504 12.0002C14.0504 10.8681 13.1326 9.95024 12.0004 9.95024Z" fill="black"/>
<path fill-rule="evenodd" clip-rule="evenodd" d="M10.1316 1.97103C10.7382 1.85866 11.3629 1.80005 12.0004 1.80005C12.638 1.80005 13.2627 1.85866 13.8692 1.97103C14.9106 2.16398 15.3508 3.11343 15.4932 3.7047C15.5896 4.10497 15.8421 4.46336 16.2252 4.68457C16.6081 4.9056 17.0443 4.94519 17.4388 4.82889C18.0221 4.65699 19.062 4.56469 19.7497 5.3674C20.5596 6.31285 21.2 7.40903 21.6228 8.60879C21.9742 9.606 21.3731 10.4601 20.9328 10.8785C20.6344 11.1621 20.4502 11.56 20.4502 12.0024C20.4502 12.4446 20.6342 12.8423 20.9323 13.1258C21.3724 13.5444 21.9731 14.3988 21.6212 15.3959C21.197 16.5976 20.5546 17.6952 19.7422 18.6415C19.0556 19.4411 18.0192 19.3504 17.4368 19.1797C17.0429 19.0643 16.6076 19.1041 16.2255 19.3247C15.8435 19.5453 15.5914 19.9022 15.4944 20.3009C15.3509 20.8907 14.9101 21.8359 13.8718 22.0286C13.2645 22.1413 12.6389 22.2001 12.0004 22.2001C11.3621 22.2001 10.7367 22.1413 10.1295 22.0287C9.09081 21.836 8.65011 20.8903 8.50673 20.3004C8.40977 19.9014 8.15762 19.5443 7.77549 19.3237C7.3933 19.1031 6.95794 19.0632 6.56391 19.1788C5.98146 19.3496 4.94457 19.4405 4.2579 18.6406C3.44633 17.6951 2.80446 16.5985 2.38043 15.3981C2.0283 14.4012 2.62869 13.5467 3.06865 13.128C3.3666 12.8444 3.55038 12.4469 3.55038 12.0049C3.55038 11.5623 3.36616 11.1644 3.06756 10.8808C2.62721 10.4625 2.02599 9.60856 2.37714 8.61133C2.79974 7.41122 3.43999 6.3147 4.24984 5.36893C4.93759 4.56576 5.97806 4.65824 6.56143 4.8303C6.95607 4.9467 7.39238 4.90714 7.77529 4.68606C8.15862 4.46474 8.41118 4.10612 8.50745 3.70562C8.64964 3.11413 9.08978 2.16406 10.1316 1.97103ZM10.4993 3.83528C10.4949 3.83974 10.4888 3.84654 10.4811 3.85652C10.4392 3.91026 10.3883 4.01064 10.3548 4.14972C10.1418 5.03567 9.57824 5.83905 8.72529 6.33151C7.87328 6.82342 6.89695 6.91017 6.02394 6.65269C5.88696 6.61229 5.77469 6.60628 5.70719 6.6157C5.69432 6.61749 5.68522 6.61942 5.67912 6.62101C5.03047 7.38247 4.51746 8.26184 4.17657 9.22177C4.17824 9.22775 4.18108 9.23638 4.18582 9.24804C4.21136 9.31091 4.27262 9.40489 4.37607 9.50315C5.0366 10.1306 5.45038 11.0202 5.45038 12.0049C5.45038 12.9884 5.0376 13.877 4.37848 14.5043C4.27512 14.6027 4.21396 14.6967 4.18848 14.7596C4.18375 14.7713 4.18093 14.7799 4.17926 14.7859C4.52131 15.7461 5.03565 16.6256 5.68571 17.3868C5.69178 17.3884 5.70084 17.3903 5.71364 17.3921C5.7808 17.4015 5.89258 17.3957 6.02918 17.3556C6.9009 17.0999 7.87513 17.1873 8.72549 17.6783C9.57572 18.1692 10.1385 18.969 10.353 19.8516C10.3866 19.9902 10.4376 20.09 10.4793 20.1434C10.4871 20.1533 10.4931 20.1601 10.4975 20.1645C10.9843 20.2535 11.4865 20.3 12.0004 20.3C12.5145 20.3 13.0169 20.2534 13.5037 20.1644C13.5081 20.16 13.5142 20.1532 13.5219 20.1433C13.5636 20.09 13.6146 19.9902 13.6483 19.8517C13.8629 18.9695 14.4256 18.17 15.2755 17.6793C16.1257 17.1884 17.0996 17.101 17.9712 17.3564C18.1077 17.3964 18.2194 17.4023 18.2866 17.3929C18.2994 17.3911 18.3084 17.3891 18.3145 17.3875C18.9652 16.6257 19.48 15.7453 19.8222 14.7841C19.8205 14.7781 19.8177 14.7695 19.813 14.7578C19.7875 14.6949 19.7263 14.6009 19.6229 14.5026C18.9633 13.8752 18.5503 12.9863 18.5503 12.0024C18.5503 11.018 18.9638 10.1285 19.6241 9.50116C19.7275 9.40287 19.7887 9.30887 19.8143 9.24598C19.819 9.23432 19.8218 9.22568 19.8235 9.2197C19.4824 8.26005 18.9693 7.38096 18.3206 6.61976C18.3145 6.61817 18.3054 6.61624 18.2926 6.61444C18.2251 6.60503 18.1129 6.61102 17.976 6.65138C17.1031 6.90865 16.1271 6.82182 15.2752 6.33002C14.4227 5.8378 13.8592 5.03495 13.646 4.14949C13.6125 4.01049 13.5616 3.91019 13.5198 3.8565C13.512 3.84653 13.5059 3.83973 13.5015 3.83528C13.0153 3.74653 12.5137 3.70005 12.0004 3.70005C11.4871 3.70005 10.9855 3.74653 10.4993 3.83528ZM19.8258 9.20895L19.8256 9.21109L19.8258 9.20895ZM19.8245 14.7949L19.8242 14.7927L19.8245 14.7949ZM4.177 14.7966L4.17724 14.7945L4.177 14.7966ZM4.1743 9.21101L4.17454 9.21316L4.1743 9.21101Z" fill="black"/>
</svg>
